<svg xmlns="http://www.w3.org/2000/svg" xmlns:xlink="http://www.w3.org/1999/xlink" viewBox="0 0 500 500" xmlns:v="https://vecta.io/nano"><style><![CDATA[.B{stroke:#263238}.C{stroke-linejoin:round}.D{fill:#fff}.E{fill:#263238}.F{fill:none}.G{stroke-linecap:round}.H{fill:#407bff}.I{fill:#616161}]]></style><defs><clipPath id="A"><path d="M330.91 278.32s-13.86 10-21.23 24.27-14.3 46.36-23.39 61.52-17.29 26.43-26 32.89-21.66 10.83-29 12.13-27.3 3.47-27.3 3.47l.87 16.46s16.9.44 49-2.6 71.06-26.43 71.06-26.43l-1.3 48.1h111.71s6.93-68.46 3.47-103.56-23.4-60.57-40.3-70.15-34.66-7.36-45.49-6.5-22.1 10.4-22.1 10.4z" class="B C I"/></clipPath><clipPath id="B"><path d="M289.37 208.18s0 18.7 1 22.64 7.55 22.63 9.19 27.88 14.43 28.53 17.38 32.14 15.74-5.25 15.74-5.25l7.22 15.75 19.2-32.12c3.61-6.24 5.65-13.12 3-23s-2.88-10.2-19.28-18.07-40.34-17.05-44.93-20.33-7.89-1.93-8.52.36z" class="B C D"/></clipPath><clipPath id="C"><path d="M276.42 206.8s29.32 17 48.77 25.45 44.22 21.67 46 32.72-10.61 21.23-15.47 25.2-14.6 13.71-14.6 13.71 23.88-13.26 32.28-19.45 11.5-16.81 8-35.82-5.75-48.2-16.36-64.56-36.7-7.52-55.71.88a125.47 125.47 0 0 0-32.91 21.87z" class="B C I"/></clipPath><clipPath id="D"><path d="M395,294.79s-13,0-20.8,21.23-16.46,75-16.46,75-19.07,14.74-33.37,21.67A250.61,250.61,0,0,1,300.15,423s6.68,13.46,6.07,18.63c-.22,1.83,2.15,4.38,2.15,4.38s36-2.65,56.34-6.55,45.49-13,49-31.63,17.73-60.29,12.1-71.56" class="B C G I"/></clipPath><path id="E" d="M228.16,476s75.68,12.15,135.06-41S438.91,295.24,454,225.59,437,94,377.86,74.15s-84.75,30.64-157.73,46.6-95.18,9-146.47,62.71S34.19,339.05,99.18,403.84,228.16,476,228.16,476Z"/><path id="F" d="M109.67,208.37h.94l-.14,1.6,1.32-1,.48.81-1.51.74,1.51.78-.48.82-1.32-1,.14,1.63h-.94l.18-1.66-1.33,1-.47-.82,1.46-.74-1.5-.7.48-.81,1.35,1Z"/><path id="G" d="M115.3,208.37h.93l-.14,1.6,1.33-1,.47.81-1.5.74,1.5.78-.47.82-1.33-1,.14,1.63h-.93l.17-1.66-1.33,1-.47-.82,1.47-.74-1.5-.7.47-.81,1.36,1Z"/><path id="H" d="M330.91 278.32s-13.86 10-21.23 24.27-14.3 46.36-23.39 61.52-17.29 26.43-26 32.89-21.66 10.83-29 12.13-27.3 3.47-27.3 3.47l.87 16.46s16.9.44 49-2.6 71.06-26.43 71.06-26.43l-1.3 48.1h111.71s6.93-68.46 3.47-103.56-23.4-60.57-40.3-70.15-34.66-7.36-45.49-6.5-22.1 10.4-22.1 10.4z"/><path id="I" d="M289.37 208.18s0 18.7 1 22.64 7.55 22.63 9.19 27.88 14.43 28.53 17.38 32.14 15.74-5.25 15.74-5.25l7.22 15.75 19.2-32.12c3.61-6.24 5.65-13.12 3-23s-2.88-10.2-19.28-18.07-40.34-17.05-44.93-20.33-7.89-1.93-8.52.36z"/><path id="J" d="M362.11 246.26c-2.63-9.84-2.88-10.2-19.28-18.07-5.17-2.48-11.1-5.1-16.93-7.62 6.75 9.61 19.54 28.63 21.26 37.21 2.34 11.73-10.56 23.07-22.29 28.94-3.52 1.76-6 3.17-7.79 4.27 2.57 2.55 11.07-2.48 14.31-4.56l21.24-15.74a6.63 6.63 0 0 1 3.95 2.77l2.5-4.24c3.6-6.22 5.65-13.12 3.03-22.96z"/><path id="K" d="M276.42 206.8s29.32 17 48.77 25.45 44.22 21.67 46 32.72-10.61 21.23-15.47 25.2-14.6 13.71-14.6 13.71 23.88-13.26 32.28-19.45 11.5-16.81 8-35.82-5.75-48.2-16.36-64.56-36.7-7.52-55.71.88a125.47 125.47 0 0 0-32.91 21.87z"/><path id="L" d="M395,294.79s-13,0-20.8,21.23-16.46,75-16.46,75-19.07,14.74-33.37,21.67A250.61,250.61,0,0,1,300.15,423s6.68,13.46,6.07,18.63c-.22,1.83,2.15,4.38,2.15,4.38s36-2.65,56.34-6.55,45.49-13,49-31.63,17.73-60.29,12.1-71.56"/><path id="M" d="M134.58 438.35h7.79v2.6h-7.79z"/></defs><use xlink:href="#E" class="H"/><use xlink:href="#E" opacity=".7" class="D"/><g class="E"><path d="M425.83 120c-2.82-9.2-14-13.76-22-17.2-3.73-1.62-4.8-4.51-5.07-8.45 0-.43 0-3 .1-5.46h-15.79l.09 5.46c-.27 3.94-1.34 6.83-5.07 8.45-7.95 3.44-19.15 8-22 17.2a22.17 22.17 0 0 0-1 7.15h71.72a22.17 22.17 0 0 0-.98-7.15z"/><path d="M389.9 37.89h2.14v52.47h-2.14z"/></g><path d="M353.84 132.2l-14.32 32.85m88.45-32.85l14.32 32.85m-80.3-34.1l-3.8 12.91m60.72-12.34l3.79 12.72m-7.78-4.56l3.23 11.96m-40.23-11.96l-1.51 11.2M185.9 154.4h25.32v24.24h-27.49m32.2 25.51h19.17v-38.9h-18.09" class="B C F G"/><path d="M173.6 150.42h15.92v9.05H173.6zm29.67 10.85h15.92v9.05h-15.92zm4.7 38.35h15.92v9.05h-15.92zm-34.37-27.49h15.92v9.05H173.6z" class="H B C"/><rect x="186.11" y="224.52" width="65.33" height="38.67" rx="3.67" class="B C D"/><path d="M186.11 231.85h65.33v14h-65.33z" class="B C H"/><path d="M237.65 257a2.73 2.73 0 1 0-2.73 2.73 2.73 2.73 0 0 0 2.73-2.73zm7.59 0a2.73 2.73 0 1 0-2.73 2.73 2.73 2.73 0 0 0 2.73-2.73zM82.31 188.58h78.17v40.73H82.31z" class="D B C"/><path d="M82.31 188.58h78.17v7.22H82.31z" class="B C E"/><path d="M94.07 204.47h54.64v11.68H94.07z" class="B C H"/><g class="E"><path d="M98.42 208.37h.94l-.14 1.6 1.32-1 .48.81-1.51.74 1.51.78-.48.82-1.32-1 .14 1.63h-.94l.18-1.75-1.33 1-.47-.82 1.46-.74-1.5-.7.48-.81 1.35 1zm5.63 0h.95l-.14 1.6 1.33-1 .47.81-1.5.74 1.5.78-.47.82-1.33-1 .14 1.63h-.93l.17-1.66-1.33 1-.47-.82 1.47-.74-1.5-.7.47-.81 1.36 1z"/><use xlink:href="#F"/><use xlink:href="#G"/><use xlink:href="#F" x="11.25"/><use xlink:href="#G" x="11.25"/><path d="M132.17 208.37h.94L133 210l1.32-1 .48.81-1.51.74 1.51.78-.48.82-1.32-1 .14 1.63h-.94l.18-1.66-1.33 1-.47-.82 1.46-.74-1.5-.7.46-.86 1.35 1zm5.63 0h.93l-.14 1.6 1.33-1 .47.81-1.5.74 1.5.78-.47.82-1.33-1 .14 1.63h-.93l.2-1.75-1.33 1-.47-.82 1.47-.74-1.5-.7.47-.81 1.36 1z"/><use xlink:href="#F" x="33.75"/></g><path d="M251.75 177.91h14.83m-14.83 4.35h14.83m-14.83 4.34h14.83m-14.83 4.34h14.83m-105.86 47.22h14.83m-14.83 4.34h14.83m-14.83 4.35h14.83m-14.83 4.34h14.83m-90.16-15.6h39.58m-39.58 4.34h39.58m-39.58 4.34h39.58m-39.58 4.34h39.58" stroke-width=".5" class="B C F G"/><path d="M210.94 409.82h9.88v37.64h-9.88z" class="B C D"/><path d="M209.39 409.82h12.97v27.33h-12.97z" class="B C E"/><path d="M136.42 284.6H300v127.95H136.42z" class="B C D"/><path d="M145.18 291.44h146.08V405.7H145.18z" class="B C E"/><g class="H"><path d="M159.07 299.3h-3.76a.93.93 0 1 1 0-1.85h3.76a.93.93 0 1 1 0 1.85zm.93 3.38a.93.93 0 0 0-.93-.93h-3.76a.93.93 0 0 0 0 1.86h3.76a.93.93 0 0 0 .93-.93zm0 4.3a.93.93 0 0 0-.93-.93h-3.76a.93.93 0 0 0 0 1.86h3.76a.92.92 0 0 0 .93-.91zm0 4.31a.92.92 0 0 0-.93-.93h-3.76a.93.93 0 1 0 0 1.85h3.76a.92.92 0 0 0 .93-.92zm0 4.3a.93.93 0 0 0-.93-.93h-3.76a.93.93 0 0 0 0 1.86h3.76a.93.93 0 0 0 .93-.93zm0 4.3a.93.93 0 0 0-.93-.93h-3.76a.93.93 0 0 0 0 1.86h3.76a.92.92 0 0 0 .93-.93zm0 4.31a.92.92 0 0 0-.93-.93h-3.76a.93.93 0 1 0 0 1.85h3.76a.92.92 0 0 0 .93-.92zm0 4.3a.93.93 0 0 0-.93-.93h-3.76a.93.93 0 0 0 0 1.86h3.76a.93.93 0 0 0 .93-.93zm14.09-30.12a.93.93 0 0 0-.93-.93h-9.88a.93.93 0 1 0 0 1.85h9.88a.93.93 0 0 0 .93-.92zm0 4.3a.93.93 0 0 0-.93-.93h-9.88a.93.93 0 1 0 0 1.86h9.88a.93.93 0 0 0 .93-.93zm0 4.3a.93.93 0 0 0-.93-.93h-9.88a.93.93 0 0 0 0 1.86h9.88a.93.93 0 0 0 .93-.91zm0 4.31a.93.93 0 0 0-.93-.93h-9.88a.93.93 0 1 0 0 1.85h9.88a.93.93 0 0 0 .93-.92zm0 4.3a.93.93 0 0 0-.93-.93h-9.88a.93.93 0 0 0 0 1.86h9.88a.93.93 0 0 0 .93-.93zm11.83 4.3a.93.93 0 0 0-.92-.89h-9.88a.93.93 0 0 0 0 1.86H185a.92.92 0 0 0 .92-.97zm0 4.31a.92.92 0 0 0-.93-.93h-9.88a.93.93 0 1 0 0 1.85H185a.92.92 0 0 0 .92-.92zm0 4.3a.93.93 0 0 0-.93-.93h-9.88a.93.93 0 0 0 0 1.86H185a.93.93 0 0 0 .92-.93zm-7.48-30.12a1.08 1.08 0 1 0-1.08 1.07 1.08 1.08 0 0 0 1.08-1.07zm3.23 0a1.08 1.08 0 1 0-1.08 1.07 1.08 1.08 0 0 0 1.08-1.07zm3.22 0a1.08 1.08 0 1 0-1.07 1.07 1.07 1.07 0 0 0 1.07-1.07zm3.23 0a1.08 1.08 0 1 0-1.08 1.07 1.08 1.08 0 0 0 1.08-1.07zm3.23 0a1.08 1.08 0 1 0-1.08 1.07 1.08 1.08 0 0 0 1.08-1.07zm3.23 0a1.08 1.08 0 1 0-1.08 1.07 1.08 1.08 0 0 0 1.08-1.07zM178.44 307a1.08 1.08 0 1 0-1.08 1.08 1.07 1.07 0 0 0 1.08-1.08zm3.23 0a1.08 1.08 0 1 0-1.08 1.08 1.08 1.08 0 0 0 1.08-1.08zm3.22 0a1.08 1.08 0 1 0-1.07 1.08 1.07 1.07 0 0 0 1.07-1.08zm3.23 0a1.08 1.08 0 1 0-1.08 1.08 1.07 1.07 0 0 0 1.08-1.08zm3.23 0a1.08 1.08 0 1 0-1.08 1.08 1.07 1.07 0 0 0 1.08-1.08zm3.23 0a1.08 1.08 0 1 0-1.08 1.08 1.08 1.08 0 0 0 1.08-1.08zm-5.11 12.37a1.08 1.08 0 1 0-1.08 1.08 1.08 1.08 0 0 0 1.08-1.1zm3.22 0a1.08 1.08 0 1 0-1.07 1.08 1.07 1.07 0 0 0 1.07-1.1zm3.23 0a1.08 1.08 0 1 0-1.08 1.08 1.07 1.07 0 0 0 1.08-1.1zm3.23 0a1.08 1.08 0 1 0-1.08 1.08 1.07 1.07 0 0 0 1.08-1.1zm3.22 0a1.08 1.08 0 1 0-1.07 1.08 1.07 1.07 0 0 0 1.07-1.1zm3.23 0a1.08 1.08 0 1 0-1.07 1.08 1.07 1.07 0 0 0 1.07-1.1zm-16.13 8.88a1.08 1.08 0 1 0-1.08 1.08 1.09 1.09 0 0 0 1.08-1.1zm3.22 0a1.08 1.08 0 1 0-1.07 1.08 1.08 1.08 0 0 0 1.07-1.1zm3.23 0a1.08 1.08 0 1 0-1.08 1.08 1.08 1.08 0 0 0 1.08-1.1zm3.23 0a1.08 1.08 0 1 0-1.08 1.08 1.08 1.08 0 0 0 1.08-1.1zm3.22 0a1.08 1.08 0 1 0-1.07 1.08 1.08 1.08 0 0 0 1.07-1.1zm3.23 0a1.08 1.08 0 1 0-1.07 1.08 1.08 1.08 0 0 0 1.07-1.1zm-46.53 5.49h-3.76a.93.93 0 0 1 0-1.86h3.76a.93.93 0 0 1 0 1.86zm.93 3.37a.92.92 0 0 0-.93-.92h-3.76a.93.93 0 1 0 0 1.85h3.76a.92.92 0 0 0 .93-.93zm0 4.31a.92.92 0 0 0-.93-.93h-3.76a.93.93 0 0 0 0 1.86h3.76a.93.93 0 0 0 .93-.93zm0 4.3a.93.93 0 0 0-.93-.93h-3.76a.93.93 0 0 0 0 1.86h3.76a.93.93 0 0 0 .93-.93zm0 4.3a.93.93 0 0 0-.93-.93h-3.76a.93.93 0 0 0 0 1.86h3.76a.92.92 0 0 0 .93-.95zm0 4.31a.92.92 0 0 0-.93-.93h-3.76a.93.93 0 0 0 0 1.86h3.76a.93.93 0 0 0 .93-.93zm0 4.3a.93.93 0 0 0-.93-.93h-3.76a.93.93 0 0 0 0 1.86h3.76a.93.93 0 0 0 .93-.93zm0 4.3a.93.93 0 0 0-.93-.93h-3.76a.93.93 0 0 0 0 1.86h3.76a.92.92 0 0 0 .93-.93zm14.09-30.12a.93.93 0 0 0-.93-.93h-9.88a.93.93 0 1 0 0 1.86h9.88a.93.93 0 0 0 .93-.93zm0 4.3a.93.93 0 0 0-.93-.92h-9.88a.93.93 0 1 0 0 1.85h9.88a.93.93 0 0 0 .93-.93zm0 4.31a.93.93 0 0 0-.93-.93h-9.88a.93.93 0 1 0 0 1.86h9.88a.93.93 0 0 0 .93-.93zm0 4.3a.93.93 0 0 0-.93-.93h-9.88a.93.93 0 0 0 0 1.86h9.88a.93.93 0 0 0 .93-.93zm0 4.3a.93.93 0 0 0-.93-.93h-9.88a.93.93 0 0 0 0 1.86h9.88a.93.93 0 0 0 .93-.95zm11.83 4.31a.92.92 0 0 0-.93-.93h-9.88a.93.93 0 1 0 0 1.86H185a.93.93 0 0 0 .92-.93zm0 4.3a.93.93 0 0 0-.93-.93h-9.88a.93.93 0 0 0 0 1.86H185a.93.93 0 0 0 .92-.93zm0 4.3a.93.93 0 0 0-.92-.93h-9.88a.93.93 0 1 0 0 1.86H185a.92.92 0 0 0 .92-.93zm-7.48-30.12a1.08 1.08 0 1 0-1.08 1.08 1.08 1.08 0 0 0 1.08-1.08zm3.23 0a1.08 1.08 0 1 0-1.08 1.08 1.09 1.09 0 0 0 1.08-1.08zm3.22 0a1.08 1.08 0 1 0-1.07 1.08 1.08 1.08 0 0 0 1.07-1.08zm3.23 0a1.08 1.08 0 1 0-1.08 1.08 1.08 1.08 0 0 0 1.08-1.08zm3.23 0a1.08 1.08 0 1 0-1.08 1.08 1.08 1.08 0 0 0 1.08-1.08zm3.23 0a1.08 1.08 0 1 0-1.08 1.08 1.09 1.09 0 0 0 1.08-1.08zm-16.14 8.61a1.08 1.08 0 1 0-1.08 1.07 1.08 1.08 0 0 0 1.08-1.07zm3.23 0a1.08 1.08 0 1 0-1.08 1.07 1.08 1.08 0 0 0 1.08-1.07zm3.22 0a1.08 1.08 0 1 0-1.07 1.07 1.07 1.07 0 0 0 1.07-1.07zm3.23 0a1.08 1.08 0 1 0-1.08 1.07 1.08 1.08 0 0 0 1.08-1.07zm3.23 0a1.08 1.08 0 1 0-1.08 1.07 1.08 1.08 0 0 0 1.08-1.07zm3.23 0a1.08 1.08 0 1 0-1.08 1.07 1.08 1.08 0 0 0 1.08-1.07zm-5.11 12.37a1.08 1.08 0 1 0-1.08 1.07 1.08 1.08 0 0 0 1.08-1.07zm3.22 0a1.08 1.08 0 1 0-1.07 1.07 1.07 1.07 0 0 0 1.07-1.07zm3.23 0a1.08 1.08 0 1 0-1.08 1.07 1.08 1.08 0 0 0 1.08-1.07zm3.23 0a1.08 1.08 0 1 0-1.08 1.07 1.08 1.08 0 0 0 1.08-1.07zm3.22 0a1.08 1.08 0 1 0-1.07 1.07 1.07 1.07 0 0 0 1.07-1.07zm3.23 0a1.08 1.08 0 1 0-1.07 1.07 1.07 1.07 0 0 0 1.07-1.07zm-16.13 8.87a1.08 1.08 0 1 0-1.08 1.08 1.08 1.08 0 0 0 1.08-1.08zm3.22 0a1.08 1.08 0 1 0-1.07 1.08 1.07 1.07 0 0 0 1.07-1.08zm3.23 0a1.08 1.08 0 1 0-1.08 1.08 1.07 1.07 0 0 0 1.08-1.08zm3.23 0a1.08 1.08 0 1 0-1.08 1.08 1.07 1.07 0 0 0 1.08-1.08zm3.22 0a1.08 1.08 0 1 0-1.07 1.08 1.07 1.07 0 0 0 1.07-1.08zm3.23 0a1.08 1.08 0 1 0-1.07 1.08 1.07 1.07 0 0 0 1.07-1.08z"/><path d="M159.07 369h-3.76a.93.93 0 0 1 0-1.86h3.76a.93.93 0 0 1 0 1.86zm.93 3.37a.93.93 0 0 0-.93-.93h-3.76a.93.93 0 0 0 0 1.86h3.76a.93.93 0 0 0 .93-.92zm0 4.3a.93.93 0 0 0-.93-.93h-3.76a.93.93 0 0 0 0 1.86h3.76a.92.92 0 0 0 .93-.92zm0 4.31a.92.92 0 0 0-.93-.93h-3.76a.93.93 0 1 0 0 1.85h3.76a.92.92 0 0 0 .93-.9zm0 4.3a.93.93 0 0 0-.93-.93h-3.76a.93.93 0 0 0 0 1.86h3.76a.93.93 0 0 0 .93-.92zm0 4.3a.93.93 0 0 0-.93-.93h-3.76a.93.93 0 0 0 0 1.86h3.76a.92.92 0 0 0 .93-.92zm0 4.31a.92.92 0 0 0-.93-.93h-3.76a.93.93 0 1 0 0 1.85h3.76a.92.92 0 0 0 .93-.91zm0 4.3a.93.93 0 0 0-.93-.93h-3.76a.93.93 0 0 0 0 1.86h3.76a.93.93 0 0 0 .93-.92zm14.09-30.12a.93.93 0 0 0-.93-.93h-9.88a.93.93 0 1 0 0 1.86h9.88a.93.93 0 0 0 .93-.92zm0 4.3a.93.93 0 0 0-.93-.93h-9.88a.93.93 0 0 0 0 1.86h9.88a.93.93 0 0 0 .93-.92zm0 4.3a.93.93 0 0 0-.93-.93h-9.88a.93.93 0 0 0 0 1.86h9.88a.93.93 0 0 0 .93-.92zm0 4.31a.93.93 0 0 0-.93-.93h-9.88a.93.93 0 1 0 0 1.85h9.88a.93.93 0 0 0 .93-.9zm0 4.3a.93.93 0 0 0-.93-.93h-9.88a.93.93 0 1 0 0 1.86h9.88a.93.93 0 0 0 .93-.92zm11.83 4.3a.93.93 0 0 0-.93-.93h-9.88a.93.93 0 0 0 0 1.86H185a.92.92 0 0 0 .92-.92zm0 4.31a.92.92 0 0 0-.92-.89h-9.88a.93.93 0 1 0 0 1.85H185a.92.92 0 0 0 .92-.95zm0 4.3a.93.93 0 0 0-.93-.93h-9.88a.93.93 0 1 0 0 1.86H185a.93.93 0 0 0 .92-.92zm-7.48-30.12a1.08 1.08 0 1 0-1.08 1.07 1.08 1.08 0 0 0 1.08-1.06zm3.23 0a1.08 1.08 0 1 0-1.08 1.07 1.08 1.08 0 0 0 1.08-1.06zm3.22 0a1.08 1.08 0 1 0-1.07 1.07 1.07 1.07 0 0 0 1.07-1.06zm3.23 0a1.08 1.08 0 1 0-1.08 1.07 1.08 1.08 0 0 0 1.08-1.06zm3.23 0a1.08 1.08 0 1 0-1.08 1.07 1.08 1.08 0 0 0 1.08-1.06zm3.23 0a1.08 1.08 0 1 0-1.08 1.07 1.08 1.08 0 0 0 1.08-1.06zm-16.14 8.6a1.08 1.08 0 1 0-1.08 1.08 1.07 1.07 0 0 0 1.08-1.07zm3.23 0a1.08 1.08 0 1 0-1.08 1.08 1.08 1.08 0 0 0 1.08-1.07zm3.22 0a1.08 1.08 0 1 0-1.07 1.08 1.07 1.07 0 0 0 1.07-1.07zm3.23 0a1.08 1.08 0 1 0-1.08 1.08 1.07 1.07 0 0 0 1.08-1.07zm3.23 0a1.08 1.08 0 1 0-1.08 1.08 1.07 1.07 0 0 0 1.08-1.07zm3.23 0a1.08 1.08 0 1 0-1.08 1.08 1.08 1.08 0 0 0 1.08-1.07zm-5.11 12.37a1.08 1.08 0 1 0-1.08 1.08 1.08 1.08 0 0 0 1.08-1.07zm3.22 0a1.08 1.08 0 1 0-1.07 1.08 1.07 1.07 0 0 0 1.07-1.07zm3.23 0a1.08 1.08 0 1 0-1.08 1.08 1.07 1.07 0 0 0 1.08-1.07zm3.23 0a1.08 1.08 0 1 0-1.08 1.08 1.07 1.07 0 0 0 1.08-1.07zm3.22 0a1.08 1.08 0 1 0-1.07 1.08 1.07 1.07 0 0 0 1.07-1.07zm3.23 0a1.08 1.08 0 1 0-1.07 1.08 1.07 1.07 0 0 0 1.07-1.07zm-16.13 8.88a1.08 1.08 0 1 0-1.08 1.08 1.09 1.09 0 0 0 1.08-1.07zm3.22 0a1.08 1.08 0 1 0-1.07 1.08 1.08 1.08 0 0 0 1.07-1.07zm3.23 0a1.08 1.08 0 1 0-1.08 1.08 1.08 1.08 0 0 0 1.08-1.07zm3.23 0a1.08 1.08 0 1 0-1.08 1.08 1.08 1.08 0 0 0 1.08-1.07zm3.22 0a1.08 1.08 0 1 0-1.07 1.08 1.08 1.08 0 0 0 1.07-1.07zm3.23 0a1.08 1.08 0 1 0-1.07 1.08 1.08 1.08 0 0 0 1.07-1.07zm11.28-98.62h-3.76a.93.93 0 1 1 0-1.85h3.76a.93.93 0 1 1 0 1.85zm.93 3.38a.93.93 0 0 0-.93-.93h-3.76a.93.93 0 1 0 0 1.86h3.76a.93.93 0 0 0 .93-.93zm0 4.3a.93.93 0 0 0-.93-.93h-3.76a.93.93 0 0 0 0 1.86h3.76a.92.92 0 0 0 .93-.91zm0 4.31a.92.92 0 0 0-.93-.93h-3.76a.93.93 0 1 0 0 1.85h3.76a.92.92 0 0 0 .93-.92zm0 4.3a.93.93 0 0 0-.93-.93h-3.76a.93.93 0 0 0 0 1.86h3.76a.93.93 0 0 0 .93-.93zm0 4.3a.93.93 0 0 0-.93-.93h-3.76a.93.93 0 0 0 0 1.86h3.76a.92.92 0 0 0 .93-.93zm0 4.31a.92.92 0 0 0-.93-.93h-3.76a.93.93 0 1 0 0 1.85h3.76a.92.92 0 0 0 .93-.92zm0 4.3a.93.93 0 0 0-.93-.93h-3.76a.93.93 0 0 0 0 1.86h3.76a.93.93 0 0 0 .93-.93zm14.09-30.12a.93.93 0 0 0-.93-.93h-9.89a.93.93 0 0 0 0 1.85H231a.93.93 0 0 0 .9-.92zm0 4.3a.93.93 0 0 0-.93-.93h-9.89a.93.93 0 0 0 0 1.86H231a.93.93 0 0 0 .9-.93zm0 4.3a.93.93 0 0 0-.93-.93h-9.89a.93.93 0 0 0 0 1.86H231a.93.93 0 0 0 .9-.91zm0 4.31a.93.93 0 0 0-.93-.93h-9.89a.93.93 0 0 0 0 1.85H231a.93.93 0 0 0 .9-.92zm0 4.3a.93.93 0 0 0-.93-.93h-9.89a.93.93 0 0 0 0 1.86H231a.93.93 0 0 0 .9-.93zm11.83 4.3a.93.93 0 0 0-.93-.93h-9.88a.93.93 0 1 0 0 1.86h9.88a.92.92 0 0 0 .93-.93zm0 4.31a.92.92 0 0 0-.93-.93h-9.88a.93.93 0 1 0 0 1.85h9.88a.92.92 0 0 0 .93-.92zm0 4.3a.93.93 0 0 0-.93-.93h-9.88a.93.93 0 1 0 0 1.86h9.88a.93.93 0 0 0 .93-.93zm-7.48-30.12a1.08 1.08 0 1 0-1.08 1.07 1.08 1.08 0 0 0 1.08-1.07zm3.22 0a1.08 1.08 0 1 0-1.07 1.07 1.07 1.07 0 0 0 1.07-1.07zm3.23 0a1.08 1.08 0 1 0-1.07 1.07 1.07 1.07 0 0 0 1.07-1.07zm3.23 0a1.08 1.08 0 1 0-1.08 1.07 1.08 1.08 0 0 0 1.08-1.07zm3.23 0a1.08 1.08 0 1 0-1.08 1.07 1.08 1.08 0 0 0 1.08-1.07zm3.22 0a1.08 1.08 0 1 0-1.07 1.07 1.07 1.07 0 0 0 1.07-1.07zM236.25 307a1.08 1.08 0 1 0-1.08 1.08 1.07 1.07 0 0 0 1.08-1.08zm3.22 0a1.08 1.08 0 1 0-1.07 1.08 1.07 1.07 0 0 0 1.07-1.08zm3.23 0a1.08 1.08 0 1 0-1.07 1.08 1.07 1.07 0 0 0 1.07-1.08zm3.23 0a1.08 1.08 0 1 0-1.08 1.08 1.07 1.07 0 0 0 1.08-1.08zm3.23 0a1.08 1.08 0 1 0-1.08 1.08 1.07 1.07 0 0 0 1.08-1.08zm3.22 0a1.08 1.08 0 1 0-1.07 1.08 1.07 1.07 0 0 0 1.07-1.08zm-5.11 12.37a1.08 1.08 0 1 0-1.07 1.08 1.07 1.07 0 0 0 1.07-1.1zm3.23 0a1.08 1.08 0 1 0-1.07 1.08 1.07 1.07 0 0 0 1.07-1.1zm3.23 0a1.08 1.08 0 1 0-1.08 1.08 1.07 1.07 0 0 0 1.08-1.1zm3.23 0a1.08 1.08 0 1 0-1.08 1.08 1.08 1.08 0 0 0 1.12-1.1zm3.22 0a1.08 1.08 0 1 0-1.07 1.08 1.07 1.07 0 0 0 1.07-1.1zm3.23 0a1.08 1.08 0 1 0-1.07 1.08 1.07 1.07 0 0 0 1.07-1.1zm-16.14 8.88a1.08 1.08 0 1 0-1.07 1.08 1.08 1.08 0 0 0 1.07-1.1zm3.23 0a1.08 1.08 0 1 0-1.07 1.08 1.08 1.08 0 0 0 1.07-1.1zm3.23 0a1.08 1.08 0 1 0-1.08 1.08 1.08 1.08 0 0 0 1.08-1.1zm3.23 0a1.08 1.08 0 1 0-1.08 1.08 1.09 1.09 0 0 0 1.12-1.1zm3.22 0a1.08 1.08 0 1 0-1.07 1.08 1.08 1.08 0 0 0 1.07-1.1zm3.23 0a1.08 1.08 0 1 0-1.07 1.08 1.08 1.08 0 0 0 1.07-1.1z"/><path d="M216.88 334.57h-3.76a.93.93 0 0 1 0-1.86h3.76a.93.93 0 0 1 0 1.86zm.93 3.38a.92.92 0 0 0-.93-.93h-3.76a.93.93 0 1 0 0 1.85h3.76a.92.92 0 0 0 .93-.87zm0 4.3a.93.93 0 0 0-.93-.93h-3.76a.93.93 0 0 0 0 1.86h3.76a.93.93 0 0 0 .93-.93zm0 4.3a.93.93 0 0 0-.93-.93h-3.76a.93.93 0 1 0 0 1.86h3.76a.93.93 0 0 0 .93-.93zm0 4.3a.92.92 0 0 0-.93-.92h-3.76a.93.93 0 1 0 0 1.85h3.76a.92.92 0 0 0 .93-.93zm0 4.31a.93.93 0 0 0-.93-.93h-3.76a.93.93 0 1 0 0 1.86h3.76a.93.93 0 0 0 .93-.93zm0 4.3a.93.93 0 0 0-.93-.93h-3.76a.93.93 0 1 0 0 1.86h3.76a.93.93 0 0 0 .93-.93zm0 4.3a.92.92 0 0 0-.93-.92h-3.76a.93.93 0 1 0 0 1.85h3.76a.92.92 0 0 0 .93-.93zm14.09-30.12a.93.93 0 0 0-.93-.93h-9.89a.93.93 0 0 0 0 1.86H231a.93.93 0 0 0 .9-.93zm0 4.31a.93.93 0 0 0-.9-.95h-9.89a.93.93 0 0 0 0 1.85H231a.93.93 0 0 0 .9-.85zm0 4.3a.93.93 0 0 0-.93-.93h-9.89a.93.93 0 0 0 0 1.86H231a.93.93 0 0 0 .9-.93zm0 4.3a.93.93 0 0 0-.93-.93h-9.89a.93.93 0 0 0 0 1.86H231a.93.93 0 0 0 .9-.93zm0 4.3a.93.93 0 0 0-.93-.92h-9.89a.93.93 0 0 0 0 1.85H231a.93.93 0 0 0 .9-.93zm11.83 4.31a.93.93 0 0 0-.93-.93h-9.88a.93.93 0 0 0 0 1.86h9.88a.93.93 0 0 0 .93-.93zm0 4.3a.93.93 0 0 0-.93-.93h-9.88a.93.93 0 1 0 0 1.86h9.88a.93.93 0 0 0 .93-.93zm0 4.3a.92.92 0 0 0-.93-.92h-9.88a.93.93 0 1 0 0 1.85h9.88a.92.92 0 0 0 .93-.93zm-7.48-30.12a1.08 1.08 0 1 0-1.08 1.08 1.07 1.07 0 0 0 1.08-1.08zm3.22 0a1.08 1.08 0 1 0-1.07 1.08 1.07 1.07 0 0 0 1.07-1.08zm3.23 0a1.08 1.08 0 1 0-1.07 1.08 1.07 1.07 0 0 0 1.07-1.08zm3.23 0a1.08 1.08 0 1 0-1.08 1.08 1.07 1.07 0 0 0 1.08-1.08zm3.23 0a1.08 1.08 0 1 0-1.08 1.08 1.07 1.07 0 0 0 1.08-1.08zm3.22 0a1.08 1.08 0 1 0-1.07 1.08 1.07 1.07 0 0 0 1.07-1.08zm-16.13 8.61a1.08 1.08 0 1 0-1.08 1.07 1.08 1.08 0 0 0 1.08-1.07zm3.22 0a1.08 1.08 0 1 0-1.07 1.07 1.07 1.07 0 0 0 1.07-1.07zm3.23 0a1.08 1.08 0 1 0-1.07 1.07 1.07 1.07 0 0 0 1.07-1.07zm3.23 0a1.08 1.08 0 1 0-1.08 1.07 1.08 1.08 0 0 0 1.08-1.07zm3.23 0a1.08 1.08 0 1 0-1.08 1.07 1.08 1.08 0 0 0 1.08-1.07zm3.22 0a1.08 1.08 0 1 0-1.07 1.07 1.07 1.07 0 0 0 1.07-1.07zm-5.11 12.37a1.08 1.08 0 1 0-1.07 1.08 1.08 1.08 0 0 0 1.07-1.08zm3.23 0a1.08 1.08 0 1 0-1.07 1.08 1.08 1.08 0 0 0 1.07-1.08zm3.23 0a1.08 1.08 0 1 0-1.08 1.08 1.08 1.08 0 0 0 1.08-1.08zm3.23 0a1.08 1.08 0 1 0-1.08 1.08 1.09 1.09 0 0 0 1.12-1.08zm3.22 0a1.08 1.08 0 1 0-1.07 1.08 1.08 1.08 0 0 0 1.07-1.08zm3.23 0a1.08 1.08 0 1 0-1.07 1.08 1.08 1.08 0 0 0 1.07-1.08zm-16.14 8.88a1.08 1.08 0 1 0-1.07 1.07 1.07 1.07 0 0 0 1.07-1.07zm3.23 0a1.08 1.08 0 1 0-1.07 1.07 1.07 1.07 0 0 0 1.07-1.07zm3.23 0a1.08 1.08 0 1 0-1.08 1.07 1.08 1.08 0 0 0 1.08-1.07zm3.23 0a1.08 1.08 0 1 0-1.08 1.07 1.08 1.08 0 0 0 1.12-1.07zm3.22 0a1.08 1.08 0 1 0-1.07 1.07 1.07 1.07 0 0 0 1.07-1.07zm3.23 0a1.08 1.08 0 1 0-1.07 1.07 1.07 1.07 0 0 0 1.07-1.07z"/></g><use xlink:href="#H" class="I"/><g clip-path="url(#A)"><path d="M398.5 274.42c-12-6.78-24.49-7.64-34.58-7.26l-22.81 36.72S367.5 290 375 288s23 4.5 27.5 21 6 80 7.5 98.5-6.5 33.5-9 36c-1.16 1.16-3.3 2.87-4 4.67h38.33s6.93-68.46 3.47-103.56-23.4-60.61-40.3-70.19z" opacity=".3"/><path d="M345.9 404.27c-20.95-.64-15.95-28.13-21.46-43.58s-5.64-41.73 15.74-42.2 25 29 28.34 44.36-1.67 42.06-22.62 41.42zm-19.64-43.72c5.25 13.58.9 40.76 19.94 41.22s23.86-24.52 20.82-39-7.41-42.07-26.79-41.72S321 347 326.26 360.55zm26.28-31.62c-2.28 7-4.18 14.1-6.1 21.22.95 1.82 2 3.48 2.89 5.37a50.52 50.52 0 0 1 2 6l14.65 1c-3.05-10.91-5.98-24.88-13.44-33.59zm-13 21c-2.95-7.31-6.41-14.36-9.92-21.41-7.33 9.81-6.24 21.25-1.48 31.95a50 50 0 0 1 10.59.31c-.65-3.73-1.12-7.48.84-10.87zm8.2 23.63c-2.26 2-4 2.19-5.6-.54a189.09 189.09 0 0 1-5.9 21.42c5.85 7 14.84 7.18 21.15.54-3.54-7.21-7.39-13.66-9.62-21.44zm.19-12.19c-.38-2.61-1.43-7.82-4.93-8s-3.18 5.56-2.67 7.86.9 8.46 4.15 8.56 3.86-5.79 3.52-8.44z" class="H"/><path d="M319.5 357.5s-6-23-5.5-12.5 1 35-10.5 48-20.5 9.5-29.5 15c-5.18 3.17-19.4 12-30.28 19.39l10.07-.89c32.06-3 71.06-26.43 71.06-26.43l-.16 5.82c.51-5.17 1.46-22.63-5.19-48.39z" opacity=".3"/><path d="M325.28,395.74s-1.73-39.43-14.73-62.82" class="B C F G"/></g><g class="C"><use xlink:href="#H" class="B F"/><g stroke="#616161" class="E"><path d="M220.35 425s-7.9-12.39-13.88-18.8-22.43-1.92-28.62-1.07-19.87 9.4-22.43 10.68 1.07 4.06 4.7 4.91 7.47-2.56 11.1-3.2 2.35 1.07 7.48 5.13 7.05 7.9 15.38 9.82a45.88 45.88 0 0 0 23.28-1.07c5.56-1.93 2.99-6.4 2.99-6.4z"/><path d="M217.79 420.93s-6.84.64-10.68 2.77-4.7 7.05-2.35 8.12 9.61 1.71 14.31-.21 4.49-4.27 3.42-7.69-4.7-2.99-4.7-2.99zm-31.19-19.65s-5.76-2.35-8.75-.43-4.06 4.06-3.85 7.9-1.71 11.32-2.13 14.95 1.06 4.49 3.84 4.92 4.06-1.92 5.13-5.34 3.41-13.89 4.7-16.45a12.05 12.05 0 0 0 1.06-5.55z"/><g class="G"><path d="M197.92,402.34s-2.13-3.84-5.55-3.84-7.47,0-7.69,3-2.13,14.95-4.27,19.65.64,7.48,3.84,7.48,3.42-.43,6.41-5.56,5.13-14.95,5.13-14.95"/><path d="M208.6,409.18s-2.56-7.05-6.4-7.69-6.84-.43-7,3.63-.86,12-3.42,16.66-4.7,6.84-1.49,7.91,5.34,1.28,7.9-1.5,6.41-14.95,6.41-15.59"/></g></g><path d="M278.77,207.49s1.76,21.22,1.32,39.79S297.34,279.12,308,286.2s20.34,10.61,24.76,13.26a21.28,21.28,0,0,1,6.63,6.19s4.87-7.07,12.83-10.17S373,282.66,375.6,271.6s-2.65-34.49-30.06-52.17S285,203.06,285,203.06Z" fill="#474747" class="B"/></g><use xlink:href="#I" class="D"/><g clip-path="url(#B)"><use xlink:href="#J" class="H"/><use xlink:href="#J" opacity=".5" class="D"/></g><g class="B C"><use xlink:href="#I" class="F"/><path d="M291.68 206.9s-6.64 5.31-8 13.94 1.33 9.95 5.31 6a77.9 77.9 0 0 0 7.31-8.63s-3.32 5.31 1.32 6.64 13.94-4 17.26-5.31-3.95-25.26-23.2-12.64zm-.02 29.49s2 3.61 13.45 5.91 26.9 1.64 31.82.32a138.27 138.27 0 0 0 13.45-4.92s2.95-.32 2.62 2.3-7.54 3.94-7.54 3.94-1.64 10.16-4.6 13.12-17.71 4.94-23.94 3.94-8.2-10.17-9.18-11.48-2-3.28-3.94-3.28-2 7.22-1.64 10.83.66 1.64-2.62 1.64-8.53-3.61-9.19-11.16-2.29-10.83 1.31-11.16z" class="E"/></g><path d="M308.7 247.56s1.41 8.43 5.27 9.84 4.57 1.4 10.54-3.52 13.71-3.16 13.71-3.16 4.22-4.57 4.22-6.32-1.41-1.06-1.41-1.06-2.65 1.72-14.43 2.28c-4.21.2-18.25-.87-18.25-.87zm-6.77-4.56l.11 3.48a4.93 4.93 0 0 1-3.81 4.26 13.51 13.51 0 0 1-7.07.11l-1.35-11a2.27 2.27 0 0 1 .45-1.57s3.48 3.98 11.67 4.72zm38.18 10a2.18 2.18 0 1 1-2.11-1.62 1.91 1.91 0 0 1 2.11 1.62z" class="H"/><g class="B C"><g class="G"><path d="M303.14,247.87s-2.29,16.07-3.6,20.34,11.15,2.29,15.08,1.64" class="D"/><g class="F"><path d="M332.66,285.59a181.23,181.23,0,0,0,17.06-12.13"/><path d="M310 241s1.61-6.43 18.36-5.09m-27.51 3.43s-3.28-5.57-8.53-5.9" stroke-width="3"/></g></g><path d="M339.35 305.65l-4.72 22.58 6.56.98-1.84-23.56z" class="D"/></g><use xlink:href="#K" class="I"/><g clip-path="url(#C)"><path d="M303.76 210.08S322.13 221 337 228.85s33.23 19.55 37.54 26.2 3.12 10.55-.79 17.59-9 10.95-3.52 11.34 10.95-10.17 10.95-18.77-1.56-17.2-3.91-31.67-9-43-15.64-50-18.37-5.86-30.49 2.35 11.33 12.12 9 18.38c-1.67 4.43-11.91.09-14.68-.7-9.34-2.66-13.68-2.26-22.75 1.48-2.77 1.08-.8 3.95 1.05 5.03z" opacity=".3"/></g><use xlink:href="#K" class="B C F"/><use xlink:href="#L" class="I"/><g clip-path="url(#D)"><path d="M395,294.79a13.65,13.65,0,0,0-5.16,1.4l.12,1.31s7-.5,13.5,9.5,4.5,17.5,6.5,42.5.5,48.5-4,48.5-17.5-5.5-15.5-2.5,5,5.5,5,9.5-9.5-7.5-12-7.5-1,1.5.5,10,0,1.5-16,6.5-41,24-47.5,26.5c-4.16,1.6-10.35,4.22-14.28,5.9v.47s38.12-3.47,58.49-7.37,45.49-13,49-31.63,17.76-61.52,12.13-72.79Z" opacity=".3"/><g class="B C F G"><path d="M360.38 392.27s15.16 1.74 22.53 10.84m-9.1-9.54s10.4-.43 16.9 10.84"/></g></g><g class="C"><use xlink:href="#L" class="B F G"/><g stroke="#616161" class="E"><path d="M309.94 434.06a16.28 16.28 0 0 0-2.31-5.9c-1.23-1.91-2.94-4.25-4.45-5.13-2.71-1.58-8.35.22-12.19.67s-5.42-1.8-12.87-7.67-40.41-9.93-44.7-9.93-8.35 2.25-16 2.7-9.94 2.71-4.07 6.33 14 2.25 19.42.67 9.7 7 11.28 7 .23 1.58-2.7 2.48-9.94 0-14.23.23-10.38 5.42-7.9 7.22 8.81 1.58 15.8 1.58 18.52-.9 21-.45 9 5.2 18.74 8.58a34.63 34.63 0 0 0 19.41.68c1.36-.23 9.71 3.84 14.22 2.93 3.14-.63 2.33-7.74 1.55-11.99z"/><path d="M253.07 403.39s-6.78-3.39-10.62-3.39-5 3.84-5 7.45a97.07 97.07 0 0 1-2 16.48c-.91 3.16.9 5.42 5 4.74s7.23-16.48 7.9-20.32 4.75-2 6.1-2.93-1.38-2.03-1.38-2.03z"/><path d="M265.93 406.55s-5.42-4.74-9.25-5.2-7.9 1.13-8.81 4.75-.45 11.06-1.8 14.67-4.74 8.58-1.58 9.26a7.15 7.15 0 0 0 7.45-2.49c2-2.26 5.19-7.9 7.45-11.51s6.54-9.48 6.54-9.48z"/><path d="M285.35 423.93s-4.07-10.84-10.61-14.9-11.74-5.42-13.74-1.35-2.71 10.38-5.87 15.57-2 6.78 2.48 6.32 6.55-6.54 9.71-10.61 3.38-2.93 3.38-2.93" class="G"/></g><g class="B D"><use xlink:href="#M"/><use xlink:href="#M" x="10.96"/><use xlink:href="#M" x="21.93"/><use xlink:href="#M" x="32.89"/><use xlink:href="#M" x="43.86"/><use xlink:href="#M" x="54.82"/><use xlink:href="#M" x="65.79"/><use xlink:href="#M" x="76.75"/><use xlink:href="#M" x="87.72"/><use xlink:href="#M" x="98.68"/><use xlink:href="#M" x="109.65"/><use xlink:href="#M" x="120.61"/><use xlink:href="#M" x="131.58"/></g><g class="F B"><use xlink:href="#M" x="142.54"/><use xlink:href="#M" x="153.51"/></g><path d="M129.09 440.54h169.29v4.73H129.09z" class="B E"/><path d="M241.63 440.54h56.75v4.73h-56.75zm-35.65-53.5H95.48l-29.2-126h110.5l29.2 126z" class="D B"/><path d="M199.48 387.04H88.98l-29.2-126h110.5l29.2 126z" class="B E"/><path d="M148.1,337.54H118.88L97,440.17a4.46,4.46,0,0,0,4.35,5.37h67.24l-3.25-3.25H128.65a2.31,2.31,0,0,1-2.27-2.73Z" class="B D"/><path d="M101.37 445.54H123a2.34 2.34 0 0 1 0-1l21.73-107h-25.85L97 440.17a4.46 4.46 0 0 0 4.37 5.37z" class="B I"/><path d="M53.38 444.87h400v9.33h-400z" class="B E"/><path d="M329.52 444.87h123.86v9.33H329.52z" class="B D"/></g></svg>